<svg width="44" height="45" viewBox="0 0 44 45" fill="none" xmlns="http://www.w3.org/2000/svg">
<g clip-path="url(#clip0_748_776)">
<g clip-path="url(#clip1_748_776)">
<path fill-rule="evenodd" clip-rule="evenodd" d="M17.3038 19.6047V30.4058H13.7071V19.6047H17.3038ZM17.5327 16.2695C17.54 16.8 17.3565 17.2432 16.9823 17.5992C16.6081 17.9553 16.1158 18.1333 15.5054 18.1333H15.4837C14.8878 18.1333 14.4083 17.9553 14.045 17.5992C13.6817 17.2432 13.5 16.8 13.5 16.2695C13.5 15.7318 13.6871 15.2868 14.0613 14.9344C14.4355 14.582 14.9242 14.4058 15.5272 14.4058C16.1303 14.4058 16.6135 14.582 16.9768 14.9344C17.3401 15.2868 17.5254 15.7318 17.5327 16.2695ZM22.8733 21.1395C23.0117 20.9214 23.1534 20.7295 23.2984 20.5638C23.451 20.3894 23.6562 20.2005 23.9142 19.997C24.1721 19.7936 24.4882 19.6356 24.8624 19.5229C25.2366 19.4103 25.6526 19.354 26.1104 19.354C27.3529 19.354 28.3519 19.7663 29.1076 20.591C29.8633 21.4158 30.2411 22.6237 30.2411 24.215V30.4058H26.6553V24.6292C26.6553 23.8662 26.5082 23.2686 26.2139 22.8363C25.9196 22.4039 25.46 22.1878 24.8351 22.1878C24.3774 22.1878 23.9941 22.3131 23.6853 22.5638C23.3765 22.8145 23.1458 23.1251 22.9932 23.4957C22.9133 23.7137 22.8733 24.0079 22.8733 24.3785V30.4058H19.2875C19.302 27.5066 19.3093 25.156 19.3093 23.354C19.3093 21.552 19.3056 20.4766 19.2984 20.1278L19.2875 19.6047H22.8733V21.1395Z" fill="#F2F2F2"/>
</g>
</g>
<rect x="0.5" y="0.905762" width="43" height="43" rx="21.5" stroke="#E0E0E0"/>
<defs>
<clipPath id="clip0_748_776">
<rect y="0.405762" width="44" height="44" rx="22" fill="white"/>
</clipPath>
<clipPath id="clip1_748_776">
<rect width="17" height="16" fill="white" transform="translate(13.5 14.4058)"/>
</clipPath>
</defs>
</svg>
