<?xml version="1.0" encoding="utf-8"?>
<!-- Generator: Adobe Illustrator 28.0.0, SVG Export Plug-In . SVG Version: 6.00 Build 0)  -->
<svg version="1.1" id="Layer_1" xmlns="http://www.w3.org/2000/svg" xmlns:xlink="http://www.w3.org/1999/xlink" x="0px" y="0px"
	 viewBox="0 0 500 160" style="enable-background:new 0 0 500 160;" xml:space="preserve">
<style type="text/css">
	.st0{fill:#FFFFFF;}
	.st1{fill:#DAF11B;}
	.st2{opacity:0.5;fill:#DAF11B;enable-background:new    ;}
</style>
<path class="st0" d="M177,63.2c-2.3-4.3-5.7-7.5-10-9.7s-9.5-3.4-15.4-3.4s-11.1,1.1-15.5,3.2s-7.8,5-10.2,8.5
	c-2.4,3.5-3.7,7.3-4,11.4H133c0.3-2.3,1.2-4.4,2.7-6.3c1.5-1.9,3.7-3.5,6.4-4.6c2.7-1.1,5.9-1.7,9.4-1.7c5.5,0,9.9,1.6,13.1,4.7
	c3.2,3.2,4.7,7.5,4.7,13.1v2.2h-20c-6.7,0-12.3,1-16.7,3c-4.4,2-7.7,4.7-9.8,8.2s-3.2,7.7-3.2,12.6c0,4.5,1.1,8.4,3.3,11.9
	s5.2,6.2,9.1,8.2c3.9,2,8.4,3,13.6,3c5.4,0,10.2-1.1,14.3-3.2s7-4.5,8.7-7.2h0.7l1.5,8.9h9.6V78.3C180.5,72.5,179.3,67.4,177,63.2
	L177,63.2z M169.4,91L169.4,91l0,3c0,4.7-0.9,8.7-2.8,12.2c-1.9,3.5-4.6,6.2-8.2,8c-3.6,1.9-7.8,2.8-12.7,2.8s-8.4-1.2-11-3.5
	c-2.6-2.3-3.9-5.4-3.9-9.1c0-4,1.5-7.2,4.5-9.7c3-2.5,7.7-3.7,14-3.7h17.8l0.9-2.9h1.4L169.4,91L169.4,91z"/>
<path class="st0" d="M196.2,140.8L196.2,140.8c0,1.5-0.4,2.6-1.1,3.3c-0.7,0.7-1.9,1.1-3.3,1.1h-11.2l-4.2,10.4H194
	c4,0,7.3-1.2,9.7-3.5c2.4-2.3,3.6-5.4,3.6-9.1V73.3h-11.1L196.2,140.8L196.2,140.8z"/>
<polygon class="st0" points="196.2,50.1 196.2,65 207.3,65 212.2,50.1 "/>
<path class="st0" d="M107,64c-2.3-4.4-5.4-7.8-9.5-10.2l-0.1,0c-4-2.5-8.7-3.7-13.8-3.7c-5.4,0-10.4,1.3-14.8,3.9
	c-4.4,2.6-7.6,5.5-9.7,8.8h-0.7c-1.5-3.3-4.1-6.2-7.9-8.8c-3.8-2.6-8.3-3.9-13.6-3.9c-4,0-7.7,1-11.1,3s-6.2,4.2-8.2,6.7h-0.7
	l-1.5-8.2H5.8v74.3H17V79.1c0-3.4,0.9-6.5,2.6-9.4c1.7-2.9,4-5.1,6.9-6.8c2.9-1.6,5.9-2.5,9.1-2.5c3.5,0,6.5,0.8,9.1,2.3
	c2.6,1.5,4.5,3.7,5.9,6.5c1.4,2.8,2.1,6.1,2.1,9.7v46.8h11.1V79.1c0-3.4,0.9-6.5,2.6-9.4c1.7-2.9,4-5.1,6.9-6.8
	c2.9-1.6,5.9-2.5,9.1-2.5c3.5,0,6.5,0.8,9.1,2.3c2.6,1.5,4.5,3.7,5.9,6.5c1.4,2.8,2.1,6.1,2.1,9.7v46.8h11.1V79
	C110.4,73.4,109.3,68.4,107,64L107,64z"/>
<path class="st0" d="M337.8,113c-3.8,2.7-8.3,4-13.6,4c-4.5,0-8.6-1.2-12.3-3.5s-6.7-5.7-8.9-9.9c-2.2-4.3-3.3-9.2-3.3-14.8
	s1.1-10.5,3.3-14.8c2.2-4.3,5.1-7.6,8.9-9.9v0c3.8-2.3,7.9-3.5,12.3-3.5c5.2,0,9.8,1.3,13.6,3.9c3.8,2.6,6.5,6.2,7.9,11h11.1
	c-1.2-5.2-3.3-9.6-6.4-13.5c-3.1-3.8-6.9-6.7-11.4-8.8c-4.5-2-9.5-3-14.9-3c-6.6,0-12.6,1.6-18.1,4.9s-9.7,7.8-12.8,13.7
	c-3.1,5.9-4.7,12.5-4.7,20.1s1.5,14.2,4.7,20.1c3.1,5.9,7.4,10.4,12.8,13.7c5.4,3.3,11.5,4.9,18.1,4.9c5.4,0,10.4-1,14.9-3.1
	c4.5-2.1,8.3-5.1,11.4-9s5.2-8.5,6.4-13.9h-11.1C344.2,106.5,341.5,110.3,337.8,113z"/>
<path class="st0" d="M432.5,68.7c-3.1-5.9-7.4-10.4-12.8-13.7c-5.4-3.3-11.5-4.9-18.1-4.9S389,51.8,383.5,55s-9.7,7.8-12.8,13.7
	c-3.1,5.9-4.7,12.5-4.7,20.1s1.5,14.2,4.7,20.1c3.1,5.9,7.4,10.4,12.8,13.7c5.4,3.3,11.5,4.9,18.1,4.9s12.6-1.6,18.1-4.9
	s9.7-7.8,12.8-13.7c3.1-5.9,4.7-12.6,4.7-20.1S435.7,74.6,432.5,68.7z M422.8,103.6c-2.2,4.3-5.1,7.6-8.9,9.9
	c-3.8,2.3-7.9,3.5-12.3,3.5s-8.6-1.2-12.3-3.5s-6.7-5.7-8.9-9.9c-2.2-4.3-3.3-9.2-3.3-14.8s1.1-10.5,3.3-14.8
	c2.2-4.3,5.1-7.6,8.9-10c3.8-2.3,7.9-3.5,12.3-3.5s8.6,1.2,12.3,3.5s6.7,5.6,8.9,10s3.3,9.2,3.3,14.8S425,99.2,422.8,103.6z"/>
<path class="st0" d="M275.8,63.2c-2.3-4.3-5.7-7.5-10-9.7s-9.5-3.4-15.4-3.4s-11.1,1.1-15.5,3.2s-7.8,5-10.2,8.5s-3.7,7.3-4,11.4
	h11.1c0.3-2.3,1.2-4.4,2.7-6.3c1.5-1.9,3.7-3.5,6.4-4.6c2.7-1.1,5.9-1.7,9.4-1.7c5.5,0,9.9,1.6,13.1,4.7c3.2,3.2,4.7,7.5,4.7,13.1
	v2.2h-20c-6.7,0-12.3,1-16.7,3c-4.4,2-7.7,4.7-9.8,8.2c-2.1,3.5-3.2,7.7-3.2,12.6c0,4.5,1.1,8.4,3.3,11.9s5.2,6.2,9.1,8.2
	c3.9,2,8.4,3,13.6,3c5.4,0,10.2-1.1,14.3-3.2c4.1-2.1,7-4.5,8.7-7.2h0.7l1.5,8.9h9.6V78.3C279.3,72.5,278.1,67.4,275.8,63.2
	L275.8,63.2z M268.2,91L268.2,91l0,3c0,4.7-0.9,8.7-2.8,12.2c-1.9,3.5-4.6,6.2-8.2,8c-3.6,1.9-7.8,2.8-12.7,2.8s-8.4-1.2-11-3.5
	c-2.6-2.3-3.9-5.4-3.9-9.1c0-4,1.5-7.2,4.5-9.7c3-2.5,7.7-3.7,14-3.7H266l0.9-2.9h1.4L268.2,91L268.2,91z"/>
<path class="st1" d="M457,9.7c-5,0-9.2,1.6-12.2,4.9c-3.1,3.2-4.7,7.6-4.7,13.1v18H454v-15c0-2,0.5-3.5,1.5-4.5s2.5-1.5,4.5-1.5
	h15.9l4.8-15C480.7,9.7,457,9.7,457,9.7z"/>
<path class="st2" d="M475.9,24.5v15c0,2-0.5,3.5-1.5,4.5c-1,1-2.5,1.5-4.5,1.5H454l-5,15h23.9c5,0,9.2-1.7,12.2-4.9
	c3.1-3.3,4.7-7.7,4.7-13.1v-18L475.9,24.5L475.9,24.5z"/>
<g>
	<path class="st0" d="M440.2,127.4V120h-2.4v-3h7.8v3h-2.4v7.4H440.2z"/>
	<path class="st0" d="M446.6,127.4V117h4.3l1.4,5h0.3l1.4-5h4.3v10.4h-2.9v-5.1H455l-1.4,5.1h-2.4l-1.4-5.1h-0.3v5.1H446.6z"/>
</g>
</svg>
