<?xml version="1.0" encoding="utf-8"?>
<!-- Generator: Adobe Illustrator 28.0.0, SVG Export Plug-In . SVG Version: 6.00 Build 0)  -->
<svg version="1.1" id="Layer_1" xmlns="http://www.w3.org/2000/svg" xmlns:xlink="http://www.w3.org/1999/xlink" x="0px" y="0px"
	 viewBox="0 0 140 140" style="enable-background:new 0 0 140 140;" xml:space="preserve">
<style type="text/css">
	.st0{fill:#DAF11B;}
	.st1{opacity:0.5;fill:#DAF11B;enable-background:new    ;}
</style>
<path class="st0" d="M57.3,29.4c-8,0-14.6,2.6-19.6,7.8c-5,5.2-7.5,12.2-7.5,20.9v28.7h22.3V62.8c0-3.2,0.8-5.6,2.4-7.2
	c1.6-1.6,4-2.4,7.2-2.4h25.5l7.7-23.9L57.3,29.4L57.3,29.4z"/>
<path class="st1" d="M87.5,53.3v23.9c0,3.2-0.8,5.6-2.4,7.2s-4,2.4-7.2,2.4H52.5l-7.9,23.9h38.1c8.1,0,14.6-2.6,19.6-7.8
	c5-5.2,7.5-12.2,7.5-20.9V53.2L87.5,53.3L87.5,53.3z"/>
<g>
	<path class="st0" d="M111.4,44v-5.3h-1.7v-2.1h5.5v2.1h-1.7V44H111.4z"/>
	<path class="st0" d="M116,44v-7.3h3l1,3.6h0.2l1-3.6h3V44h-2.1v-3.6h-0.2l-1,3.6h-1.7l-1-3.6H118V44H116z"/>
</g>
</svg>
