<svg width="44" height="45" viewBox="0 0 44 45" fill="none" xmlns="http://www.w3.org/2000/svg">
<g clip-path="url(#clip0_748_784)">
<g clip-path="url(#clip1_748_784)">
<path fill-rule="evenodd" clip-rule="evenodd" d="M31.7 16.3058C31.1417 17.1224 30.4667 17.8183 29.675 18.3933C29.6833 18.5099 29.6875 18.6849 29.6875 18.9183C29.6875 20.0016 29.5292 21.0828 29.2125 22.162C28.8958 23.2412 28.4146 24.2766 27.7687 25.2683C27.1229 26.2599 26.3542 27.137 25.4625 27.8995C24.5708 28.662 23.4958 29.2703 22.2375 29.7245C20.9792 30.1787 19.6333 30.4058 18.2 30.4058C15.9417 30.4058 13.875 29.8016 12 28.5933C12.2917 28.6266 12.6167 28.6433 12.975 28.6433C14.85 28.6433 16.5208 28.0683 17.9875 26.9183C17.1125 26.9016 16.3292 26.6328 15.6375 26.112C14.9458 25.5912 14.4708 24.9266 14.2125 24.1183C14.4875 24.1599 14.7417 24.1808 14.975 24.1808C15.3333 24.1808 15.6875 24.1349 16.0375 24.0433C15.1042 23.8516 14.3313 23.387 13.7188 22.6495C13.1062 21.912 12.8 21.0558 12.8 20.0808V20.0308C13.3667 20.3474 13.975 20.5183 14.625 20.5433C14.075 20.1766 13.6375 19.6974 13.3125 19.1058C12.9875 18.5141 12.825 17.8724 12.825 17.1808C12.825 16.4474 13.0083 15.7683 13.375 15.1433C14.3833 16.3849 15.6104 17.3787 17.0562 18.1245C18.5021 18.8703 20.05 19.2849 21.7 19.3683C21.6333 19.0516 21.6 18.7433 21.6 18.4433C21.6 17.3266 21.9937 16.3745 22.7812 15.587C23.5688 14.7995 24.5208 14.4058 25.6375 14.4058C26.8042 14.4058 27.7875 14.8308 28.5875 15.6808C29.4958 15.5058 30.35 15.1808 31.15 14.7058C30.8417 15.6641 30.25 16.4058 29.375 16.9308C30.15 16.8474 30.925 16.6391 31.7 16.3058Z" fill="#F2F2F2"/>
</g>
<path d="M43.6672 8.5993V6.95122H51.4321V8.5993H48.5376V16.4058H46.5617V8.5993H43.6672ZM53.2603 16.4058L51.3306 9.31485H53.3203L54.419 14.0791H54.4836L55.6285 9.31485H57.5813L58.7446 14.0514H58.8046L59.8849 9.31485H61.87L59.9449 16.4058H57.8629L56.6441 11.9462H56.5564L55.3377 16.4058H53.2603ZM62.9191 16.4058V9.31485H64.8857V16.4058H62.9191ZM63.907 8.40079C63.6146 8.40079 63.3638 8.30384 63.1545 8.10995C62.9483 7.91298 62.8452 7.67754 62.8452 7.40363C62.8452 7.1328 62.9483 6.90043 63.1545 6.70654C63.3638 6.50957 63.6146 6.41109 63.907 6.41109C64.1994 6.41109 64.4487 6.50957 64.6549 6.70654C64.8642 6.90043 64.9688 7.1328 64.9688 7.40363C64.9688 7.67754 64.8642 7.91298 64.6549 8.10995C64.4487 8.30384 64.1994 8.40079 63.907 8.40079ZM70.2327 9.31485V10.7921H65.9625V9.31485H70.2327ZM66.932 7.61599H68.8986V14.2268C68.8986 14.4084 68.9263 14.5499 68.9817 14.6515C69.0371 14.75 69.114 14.8192 69.2125 14.8592C69.3141 14.8993 69.431 14.9193 69.5633 14.9193C69.6557 14.9193 69.748 14.9116 69.8403 14.8962C69.9327 14.8777 70.0034 14.8639 70.0527 14.8546L70.362 16.318C70.2635 16.3488 70.125 16.3842 69.9465 16.4242C69.768 16.4673 69.551 16.4935 69.2956 16.5027C68.8216 16.5212 68.4061 16.4581 68.0491 16.3134C67.6952 16.1688 67.4198 15.9441 67.2228 15.6394C67.0258 15.3347 66.9289 14.95 66.932 14.4853V7.61599ZM75.2855 9.31485V10.7921H71.0152V9.31485H75.2855ZM71.9847 7.61599H73.9513V14.2268C73.9513 14.4084 73.979 14.5499 74.0344 14.6515C74.0898 14.75 74.1667 14.8192 74.2652 14.8592C74.3668 14.8993 74.4837 14.9193 74.6161 14.9193C74.7084 14.9193 74.8007 14.9116 74.8931 14.8962C74.9854 14.8777 75.0562 14.8639 75.1054 14.8546L75.4147 16.318C75.3162 16.3488 75.1777 16.3842 74.9992 16.4242C74.8207 16.4673 74.6038 16.4935 74.3483 16.5027C73.8744 16.5212 73.4589 16.4581 73.1019 16.3134C72.7479 16.1688 72.4725 15.9441 72.2755 15.6394C72.0786 15.3347 71.9816 14.95 71.9847 14.4853V7.61599ZM79.7219 16.5443C78.9925 16.5443 78.3647 16.3965 77.8384 16.1011C77.3152 15.8025 76.912 15.3809 76.6289 14.8362C76.3457 14.2883 76.2041 13.6405 76.2041 12.8926C76.2041 12.1632 76.3457 11.5231 76.6289 10.9722C76.912 10.4213 77.3106 9.99194 77.8245 9.68417C78.3416 9.37641 78.9479 9.22252 79.6434 9.22252C80.1112 9.22252 80.5467 9.29793 80.9499 9.44873C81.3561 9.59646 81.7101 9.81959 82.0117 10.1181C82.3164 10.4167 82.5533 10.7921 82.7226 11.2445C82.8919 11.6939 82.9765 12.2202 82.9765 12.8234V13.3635H76.9889V12.1448H81.1253C81.1253 11.8616 81.0638 11.6108 80.9407 11.3923C80.8175 11.1738 80.6467 11.0029 80.4282 10.8798C80.2128 10.7537 79.962 10.6906 79.6757 10.6906C79.3772 10.6906 79.1125 10.7598 78.8817 10.8983C78.654 11.0337 78.4755 11.2168 78.3462 11.4477C78.2169 11.6754 78.1508 11.9293 78.1477 12.2094V13.3681C78.1477 13.719 78.2123 14.0221 78.3416 14.2776C78.4739 14.533 78.6601 14.73 78.9002 14.8685C79.1402 15.007 79.4249 15.0762 79.7542 15.0762C79.9727 15.0762 80.1728 15.0454 80.3544 14.9839C80.5359 14.9223 80.6914 14.83 80.8206 14.7069C80.9499 14.5838 81.0484 14.433 81.1161 14.2545L82.935 14.3745C82.8426 14.8115 82.6534 15.1932 82.3671 15.5194C82.084 15.8426 81.7178 16.0949 81.2684 16.2765C80.8222 16.455 80.3067 16.5443 79.7219 16.5443ZM84.2599 16.4058V9.31485H86.1665V10.5521H86.2404C86.3696 10.112 86.5866 9.77958 86.8913 9.55491C87.196 9.32716 87.5468 9.21329 87.9438 9.21329C88.0423 9.21329 88.1485 9.21945 88.2624 9.23176C88.3763 9.24407 88.4763 9.26099 88.5625 9.28254V11.0276C88.4701 10.9999 88.3424 10.9752 88.1793 10.9537C88.0162 10.9322 87.8669 10.9214 87.7315 10.9214C87.4422 10.9214 87.1837 10.9845 86.9559 11.1107C86.7313 11.2338 86.5527 11.4061 86.4204 11.6277C86.2911 11.8493 86.2265 12.1047 86.2265 12.394V16.4058H84.2599Z" fill="#F2F2F2"/>
</g>
<rect x="0.5" y="0.905762" width="43" height="43" rx="21.5" stroke="#E0E0E0"/>
<defs>
<clipPath id="clip0_748_784">
<rect y="0.405762" width="44" height="44" rx="22" fill="white"/>
</clipPath>
<clipPath id="clip1_748_784">
<rect width="20" height="16" fill="white" transform="translate(12 14.4058)"/>
</clipPath>
</defs>
</svg>
